<svg width="1426" height="1089" viewBox="0 0 1426 1089" fill="none" xmlns="http://www.w3.org/2000/svg">
<g clip-path="url(#clip0_0_5)">
<path d="M953 535C953 249.469 739.664 18 476.5 18C213.336 18 0 249.469 0 535" stroke="#3F5148"/>
<path d="M1347 18L527 18" stroke="#3F5148"/>
<path d="M953 15V1089" stroke="#3F5148"/>
<g opacity="0.64">
<path d="M1061.94 185.835L1059.04 184.778C1057.72 184.279 1057.3 183.369 1057.75 182.253C1058.23 181.108 1059.26 180.697 1060.58 181.196L1062.61 181.93L1063.68 179.434L1064.54 179.757L1061.94 185.835ZM1062.32 182.605L1060.58 181.959C1059.59 181.578 1058.97 181.842 1058.65 182.547C1058.33 183.251 1058.62 183.809 1059.62 184.191L1061.36 184.837L1062.32 182.605Z" fill="#FFFCF6"/>
<path d="M1053.31 182.312L1050.44 180.697C1049.28 180.051 1048.99 179.082 1049.57 178.202C1050.02 177.556 1050.73 177.145 1051.57 177.38C1050.92 176.851 1051.12 176.323 1051.44 175.735C1051.76 175.148 1052.21 174.561 1052.11 174.003L1053.02 174.532C1053.08 174.884 1052.56 175.412 1052.31 176C1052.05 176.587 1051.86 177.115 1052.63 177.585L1054.63 178.701L1056.24 176.352L1057.04 176.792L1053.31 182.312ZM1052.53 178.378C1051.79 177.937 1051.02 177.761 1050.47 178.554C1050.12 179.112 1050.15 179.67 1050.89 180.11L1052.92 181.255L1054.21 179.317L1052.53 178.378Z" fill="#FFFCF6"/>
<path d="M1045.16 177.291L1041.49 174.297L1042.03 173.739L1045 176.146L1046.51 174.59L1043.74 172.359L1044.29 171.801L1047.06 174.091L1048.7 172.418L1045.7 169.981L1046.25 169.424L1049.96 172.447L1045.16 177.291Z" fill="#FFFCF6"/>
<path d="M1038.49 171.507L1037.72 170.568L1041.1 165.606L1034.98 167.309L1034.21 166.369L1039.88 162.377L1040.42 163.052L1035.69 166.369L1041.78 164.696L1042.29 165.283L1038.91 170.186L1043.64 166.869L1044.19 167.544L1038.49 171.507Z" fill="#FFFCF6"/>
<path d="M1031.92 162.818L1031.47 162.055L1037.78 158.944L1038.23 159.707L1031.92 162.818Z" fill="#FFFCF6"/>
<path d="M1031.79 152.131C1033.47 151.544 1034.75 152.131 1035.33 153.657C1035.98 155.243 1035.56 156.446 1033.76 157.034L1029.47 158.472L1029.15 157.65L1033.43 156.212C1034.62 155.83 1035.01 154.949 1034.56 153.892C1034.14 152.865 1033.24 152.512 1032.08 152.923L1027.8 154.362L1027.47 153.54L1031.79 152.131Z" fill="#FFFCF6"/>
<path d="M1026.28 149.458L1026.09 148.284L1031.69 145.407L1025.41 144.203L1025.22 143.029L1032.31 142.03L1032.44 142.852L1026.57 143.674L1032.79 144.878L1032.89 145.612L1027.35 148.431L1033.21 147.609L1033.34 148.431L1026.28 149.458Z" fill="#FFFCF6"/>
<path d="M1025.25 133.898L1025.74 130.874C1025.93 129.641 1026.77 128.995 1027.89 129.142C1028.73 129.259 1029.41 129.7 1029.51 130.492C1029.8 129.758 1030.41 129.67 1031.12 129.729C1031.82 129.788 1032.6 129.905 1033.11 129.612L1032.95 130.58C1032.6 130.786 1031.89 130.551 1031.15 130.58C1030.44 130.58 1029.83 130.668 1029.7 131.491L1029.38 133.604L1032.4 134.015L1032.27 134.896L1025.25 133.898ZM1028.93 131.667C1029.05 130.845 1028.93 130.14 1027.89 130.023C1027.22 129.935 1026.64 130.228 1026.51 130.991L1026.16 133.135L1028.64 133.458L1028.93 131.667Z" fill="#FFFCF6"/>
<path d="M1027.86 122.36C1028.6 120.392 1030.66 119.923 1032.53 120.51C1034.37 121.068 1035.72 122.594 1034.98 124.561C1034.24 126.528 1032.18 126.998 1030.31 126.411C1028.44 125.883 1027.12 124.327 1027.86 122.36ZM1034.17 124.356C1034.72 122.859 1033.53 121.772 1032.18 121.361C1030.82 120.95 1029.15 121.126 1028.6 122.624C1028.06 124.121 1029.25 125.207 1030.6 125.618C1031.95 126.029 1033.63 125.853 1034.17 124.356Z" fill="#FFFCF6"/>
<path d="M1032.31 113.494C1033.43 111.703 1035.59 111.615 1037.27 112.496C1038.94 113.377 1039.94 115.109 1038.78 116.929C1037.62 118.749 1035.49 118.808 1033.82 117.927C1032.15 116.988 1031.15 115.256 1032.31 113.494ZM1038.1 116.548C1038.97 115.168 1038.04 113.905 1036.82 113.259C1035.56 112.584 1033.92 112.496 1033.01 113.847C1032.15 115.226 1033.08 116.489 1034.3 117.135C1035.56 117.81 1037.2 117.898 1038.1 116.548Z" fill="#FFFCF6"/>
<path d="M1036.72 107.651L1037.59 106.741L1043.55 108.884L1040.62 103.687L1041.49 102.777L1046.8 107.152L1046.19 107.768L1041.74 104.128L1044.67 109.266L1044.13 109.823L1038.2 107.71L1042.65 111.35L1042.03 111.967L1036.72 107.651Z" fill="#FFFCF6"/>
<path d="M1049.54 99.2543C1048.83 98.5497 1048.02 98.6378 1047.25 99.1662C1046.64 99.6066 1046.12 100.253 1046.7 100.957C1047.22 101.603 1048.25 101.075 1049.31 100.634C1050.38 100.194 1051.53 99.8415 1052.37 100.898C1053.27 102.014 1052.47 103.276 1051.44 103.981C1050.15 104.862 1048.6 105.038 1047.54 103.776L1048.28 103.276C1048.99 104.157 1050.15 103.981 1050.99 103.394C1051.7 102.924 1052.28 102.22 1051.63 101.456C1051.05 100.752 1050.02 101.221 1048.96 101.662C1047.9 102.102 1046.77 102.484 1046 101.544C1045.09 100.487 1045.77 99.2836 1046.8 98.579C1047.96 97.757 1049.28 97.6689 1050.25 98.7846L1049.54 99.2543Z" fill="#FFFCF6"/>
<path d="M1055.59 100.077L1056.56 99.6078L1057.07 100.488L1056.11 100.958L1055.59 100.077Z" fill="#FFFCF6"/>
<path d="M1062.52 91.1807L1065.03 90.5348C1065.64 90.388 1066.45 90.1825 1066.9 90.2999C1067.41 90.4174 1067.93 90.7697 1068.12 91.4156C1068.35 92.0909 1068.09 92.678 1067.51 93.0891C1068.41 93.0303 1069.05 93.5001 1069.28 94.2928C1069.57 95.2029 1069.09 96.2892 1067.73 96.6415L1064.42 97.4929L1062.52 91.1807ZM1065.13 96.4947L1067.44 95.9075C1068.25 95.702 1068.6 95.1442 1068.41 94.4396C1068.15 93.6175 1067.35 93.5882 1066.57 93.7643L1064.48 94.3222L1065.13 96.4947ZM1064.26 93.6469L1066.09 93.2065C1067.15 92.9423 1067.44 92.5019 1067.25 91.856C1066.99 90.9752 1066.28 91.0339 1065.48 91.2394L1063.64 91.6798L1064.26 93.6469Z" fill="#FFFCF6"/>
<path d="M1074.05 88.95L1075.11 88.862L1078.55 95.1154L1077.49 95.2035L1076.53 93.3245L1073.53 93.5888L1072.92 95.6145L1071.92 95.7026L1074.05 88.95ZM1073.72 92.8254L1076.14 92.6199L1074.63 89.7134L1073.72 92.8254Z" fill="#FFFCF6"/>
<path d="M1081.55 88.6251L1082.55 88.7132L1085.8 94.262L1086.29 89.0068L1087.19 89.0655L1086.61 95.5832L1085.58 95.5245L1082.32 90.0344L1081.84 95.2309L1080.94 95.1722L1081.55 88.6251Z" fill="#FFFCF6"/>
<path d="M1091.73 89.8008L1092.63 90.0357L1091.7 93.1771L1096.14 90.8871L1097.3 91.1807L1093.63 93.0009L1095.53 97.4929L1094.37 97.1993L1092.82 93.3826L1091.37 94.0579L1090.7 96.2598L1089.8 96.0249L1091.73 89.8008Z" fill="#FFFCF6"/>
<path d="M1105.77 94.5564L1106.58 94.9968L1104.97 97.4042L1108.19 99.1658L1109.8 96.7583L1110.6 97.1987L1106.87 102.777L1106.06 102.337L1107.77 99.7823L1104.55 98.0208L1102.84 100.575L1102.03 100.135L1105.77 94.5564Z" fill="#FFFCF6"/>
<path d="M1116.72 101.485C1118.39 102.895 1118.04 104.803 1116.72 106.124C1115.4 107.445 1113.37 107.944 1111.66 106.564C1109.96 105.185 1110.34 103.247 1111.66 101.926C1112.98 100.605 1115.01 100.105 1116.72 101.485ZM1112.21 106.007C1113.5 107.064 1115.08 106.506 1116.01 105.537C1116.95 104.568 1117.46 103.1 1116.17 102.043C1114.88 100.986 1113.31 101.544 1112.37 102.513C1111.44 103.482 1110.92 104.95 1112.21 106.007Z" fill="#FFFCF6"/>
<path d="M1122.23 108.15L1120.78 106.418L1121.39 105.977L1124.9 110.117L1124.29 110.557L1122.84 108.825L1117.81 112.348L1117.23 111.644L1122.23 108.15Z" fill="#FFFCF6"/>
<path d="M1126.87 112.964L1129.22 116.928L1128.51 117.28L1126.61 114.08L1124.61 115.078L1126.38 118.043L1125.67 118.396L1123.9 115.43L1121.74 116.517L1123.68 119.746L1122.97 120.098L1120.59 116.106L1126.87 112.964Z" fill="#FFFCF6"/>
<path d="M1130.83 120.334L1131.15 121.156L1125.16 123.094L1126.41 126.353L1125.64 126.588L1124.06 122.507L1130.83 120.334Z" fill="#FFFCF6"/>
</g>
<path d="M1066.63 136.225C1065.78 136.095 1065.23 135.258 1065.46 134.428V134.428C1065.68 133.653 1066.52 133.226 1067.27 133.51L1079.72 138.228L1066.63 136.225Z" fill="#FCD043"/>
<path d="M1081.07 126.847C1081.2 125.75 1082.28 125.017 1083.34 125.301V125.301C1084.34 125.565 1084.86 126.655 1084.44 127.598L1079.8 138L1081.07 126.847Z" fill="#FCD043"/>
<path d="M1071.96 128.661C1071.33 127.89 1071.5 126.83 1072.34 126.405V126.405C1073.12 126.008 1074.16 126.384 1074.55 127.205L1079.79 138.134L1071.96 128.661Z" fill="#FCD043"/>
<path d="M1089.77 130.956C1090.57 130.399 1091.77 130.681 1092.32 131.556V131.556C1092.84 132.374 1092.53 133.374 1091.65 133.687L1079.77 137.936L1089.77 130.956Z" fill="#FCD043"/>
<path d="M1092.66 139.934C1093.51 140.065 1094.06 140.902 1093.83 141.732V141.732C1093.61 142.507 1092.77 142.934 1092.02 142.649L1079.58 137.932L1092.66 139.934Z" fill="#FCD043"/>
<path d="M1078.22 149.313C1078.09 150.409 1077.01 151.143 1075.95 150.859V150.859C1074.95 150.594 1074.43 149.505 1074.85 148.562L1079.49 138.159L1078.22 149.313Z" fill="#FCD043"/>
<path d="M1087.43 147.449C1088.07 148.22 1087.89 149.28 1087.06 149.705V149.705C1086.28 150.102 1085.24 149.726 1084.84 148.905L1079.6 137.976L1087.43 147.449Z" fill="#FCD043"/>
<path d="M1069.62 145.149C1068.83 145.706 1067.63 145.424 1067.07 144.548V144.548C1066.55 143.731 1066.87 142.731 1067.75 142.417L1079.62 138.169L1069.62 145.149Z" fill="#FCD043"/>
</g>
<defs>
<clipPath id="clip0_0_5">
<rect width="1426" height="1089" fill="white"/>
</clipPath>
</defs>
</svg>
