<svg width="1228" height="728" viewBox="0 0 1228 728" fill="none" xmlns="http://www.w3.org/2000/svg">
<g clip-path="url(#clip0_1_41)">
<g opacity="0.64">
<path d="M841.542 152.84L839.322 151.952C838.311 151.533 837.99 150.768 838.336 149.831C838.706 148.869 839.495 148.523 840.506 148.943L842.06 149.559L842.874 147.463L843.54 147.734L841.542 152.84ZM841.838 150.127L840.506 149.584C839.742 149.263 839.273 149.485 839.026 150.077C838.78 150.669 839.002 151.138 839.766 151.459L841.098 152.001L841.838 150.127Z" fill="#FFFCF6"/>
<path d="M834.932 149.88L832.737 148.523C831.849 147.981 831.627 147.167 832.071 146.427C832.416 145.884 832.959 145.539 833.6 145.736C833.107 145.292 833.255 144.848 833.501 144.355C833.748 143.861 834.093 143.368 834.019 142.899L834.71 143.343C834.759 143.639 834.365 144.083 834.167 144.577C833.97 145.07 833.822 145.514 834.414 145.909L835.943 146.846L837.177 144.873L837.793 145.243L834.932 149.88ZM834.34 146.575C833.773 146.205 833.181 146.057 832.761 146.723C832.49 147.191 832.515 147.66 833.082 148.03L834.636 148.992L835.623 147.364L834.34 146.575Z" fill="#FFFCF6"/>
<path d="M828.691 145.662L825.879 143.146L826.298 142.677L828.567 144.7L829.727 143.392L827.605 141.517L828.025 141.049L830.146 142.973L831.404 141.567L829.11 139.519L829.529 139.051L832.366 141.591L828.691 145.662Z" fill="#FFFCF6"/>
<path d="M823.585 140.802L822.993 140.013L825.583 135.844L820.896 137.275L820.304 136.486L824.646 133.131L825.065 133.698L821.439 136.486L826.101 135.08L826.496 135.573L823.906 139.692L827.532 136.905L827.951 137.472L823.585 140.802Z" fill="#FFFCF6"/>
<path d="M818.553 133.502L818.207 132.86L823.042 130.246L823.387 130.887L818.553 133.502Z" fill="#FFFCF6"/>
<path d="M818.453 124.522C819.736 124.029 820.722 124.522 821.166 125.805C821.66 127.137 821.339 128.148 819.958 128.642L816.677 129.85L816.43 129.16L819.711 127.951C820.624 127.63 820.92 126.89 820.574 126.002C820.254 125.139 819.563 124.843 818.675 125.188L815.394 126.397L815.148 125.706L818.453 124.522Z" fill="#FFFCF6"/>
<path d="M814.236 122.277L814.088 121.29L818.38 118.873L813.569 117.862L813.421 116.875L818.848 116.036L818.947 116.727L814.458 117.418L819.218 118.429L819.292 119.046L815.05 121.414L819.539 120.723L819.638 121.414L814.236 122.277Z" fill="#FFFCF6"/>
<path d="M813.447 109.204L813.817 106.663C813.965 105.627 814.606 105.084 815.47 105.207C816.111 105.306 816.629 105.676 816.703 106.342C816.925 105.725 817.394 105.651 817.936 105.701C818.479 105.75 819.071 105.849 819.466 105.602L819.342 106.416C819.071 106.589 818.528 106.391 817.961 106.416C817.418 106.416 816.95 106.49 816.851 107.181L816.604 108.957L818.923 109.302L818.824 110.042L813.447 109.204ZM816.259 107.329C816.358 106.638 816.259 106.046 815.47 105.947C814.952 105.873 814.508 106.12 814.409 106.761L814.138 108.562L816.037 108.834L816.259 107.329Z" fill="#FFFCF6"/>
<path d="M815.444 99.509C816.012 97.8563 817.59 97.4616 819.021 97.9549C820.427 98.4236 821.463 99.7063 820.896 101.359C820.329 103.012 818.75 103.406 817.319 102.913C815.888 102.469 814.877 101.162 815.444 99.509ZM820.279 101.186C820.699 99.9283 819.786 99.0156 818.75 98.6703C817.714 98.3249 816.431 98.4729 816.012 99.731C815.592 100.989 816.505 101.902 817.541 102.247C818.577 102.592 819.86 102.444 820.279 101.186Z" fill="#FFFCF6"/>
<path d="M818.848 92.0606C819.712 90.5559 821.364 90.4819 822.647 91.2219C823.93 91.9619 824.694 93.4173 823.806 94.9466C822.918 96.476 821.29 96.5253 820.008 95.7853C818.725 94.996 817.96 93.5406 818.848 92.0606ZM823.288 94.626C823.954 93.4666 823.239 92.406 822.302 91.8633C821.34 91.2959 820.082 91.2219 819.391 92.3566C818.725 93.516 819.44 94.5766 820.378 95.1193C821.34 95.6867 822.598 95.7607 823.288 94.626Z" fill="#FFFCF6"/>
<path d="M822.228 87.151L822.894 86.3863L827.458 88.1871L825.213 83.8209L825.879 83.0562L829.949 86.7317L829.48 87.2497L826.076 84.1909L828.321 88.5077L827.902 88.9764L823.363 87.2004L826.767 90.2591L826.298 90.7772L822.228 87.151Z" fill="#FFFCF6"/>
<path d="M832.046 80.0963C831.503 79.5043 830.887 79.5783 830.295 80.0223C829.826 80.3923 829.431 80.935 829.875 81.527C830.27 82.0697 831.059 81.6257 831.873 81.2557C832.687 80.8857 833.575 80.5897 834.217 81.4777C834.907 82.415 834.291 83.4757 833.501 84.0677C832.515 84.8078 831.331 84.9558 830.517 83.8951L831.084 83.4757C831.627 84.2157 832.515 84.0677 833.156 83.5744C833.699 83.1797 834.143 82.5877 833.649 81.9464C833.205 81.3544 832.416 81.749 831.602 82.119C830.788 82.489 829.925 82.8097 829.333 82.0204C828.642 81.1323 829.16 80.121 829.949 79.529C830.837 78.8383 831.849 78.7643 832.589 79.7017L832.046 80.0963Z" fill="#FFFCF6"/>
<path d="M836.682 80.7871L837.422 80.3922L837.817 81.1327L837.077 81.5277L836.682 80.7871Z" fill="#FFFCF6"/>
<path d="M841.987 73.3131L843.911 72.7704C844.379 72.647 844.996 72.4744 845.341 72.573C845.736 72.6717 846.131 72.9677 846.279 73.5104C846.451 74.0778 846.254 74.5711 845.81 74.9164C846.501 74.8671 846.994 75.2618 847.167 75.9278C847.389 76.6925 847.019 77.6052 845.983 77.9012L843.442 78.6166L841.987 73.3131ZM843.985 77.7779L845.761 77.2845C846.377 77.1118 846.649 76.6432 846.501 76.0511C846.303 75.3605 845.687 75.3358 845.095 75.4838L843.491 75.9525L843.985 77.7779ZM843.319 75.3851L844.725 75.0151C845.539 74.7931 845.761 74.4231 845.613 73.8804C845.415 73.1404 844.873 73.1897 844.256 73.3624L842.85 73.7324L843.319 75.3851Z" fill="#FFFCF6"/>
<path d="M850.817 71.4389L851.631 71.3649L854.271 76.619L853.456 76.693L852.716 75.1143L850.422 75.3363L849.954 77.0383L849.189 77.1123L850.817 71.4389ZM850.57 74.695L852.42 74.5223L851.261 72.0802L850.57 74.695Z" fill="#FFFCF6"/>
<path d="M856.565 71.1659L857.33 71.2399L859.821 75.902L860.191 71.4866L860.882 71.5359L860.438 77.012L859.648 76.9627L857.157 72.3499L856.787 76.716L856.096 76.6667L856.565 71.1659Z" fill="#FFFCF6"/>
<path d="M864.36 72.1535L865.05 72.3509L864.335 74.9903L867.739 73.0662L868.627 73.3129L865.815 74.8423L867.27 78.6164L866.382 78.3697L865.198 75.163L864.088 75.7303L863.57 77.5804L862.88 77.383L864.36 72.1535Z" fill="#FFFCF6"/>
<path d="M875.115 76.1492L875.731 76.5192L874.498 78.5419L876.965 80.022L878.198 77.9992L878.815 78.3693L875.953 83.056L875.337 82.686L876.644 80.54L874.177 79.0599L872.87 81.206L872.253 80.836L875.115 76.1492Z" fill="#FFFCF6"/>
<path d="M883.501 81.9707C884.784 83.1547 884.512 84.7581 883.501 85.8681C882.49 86.9781 880.936 87.3975 879.628 86.2381C878.321 85.0788 878.617 83.4507 879.628 82.3407C880.64 81.2307 882.194 80.8113 883.501 81.9707ZM880.048 85.7694C881.034 86.6575 882.243 86.1888 882.958 85.3748C883.674 84.5607 884.068 83.3274 883.082 82.4394C882.095 81.5513 880.886 82.02 880.171 82.834C879.456 83.6481 879.061 84.8814 880.048 85.7694Z" fill="#FFFCF6"/>
<path d="M887.719 87.5703L886.609 86.1149L887.078 85.7449L889.766 89.223L889.298 89.593L888.188 88.1376L884.339 91.0977L883.895 90.5057L887.719 87.5703Z" fill="#FFFCF6"/>
<path d="M891.272 91.6152L893.073 94.9452L892.53 95.2412L891.075 92.5525L889.545 93.3912L890.902 95.8826L890.359 96.1786L889.003 93.6872L887.35 94.5999L888.83 97.3132L888.287 97.6093L886.462 94.2545L891.272 91.6152Z" fill="#FFFCF6"/>
<path d="M894.305 97.8074L894.552 98.4981L889.964 100.126L890.926 102.864L890.334 103.061L889.125 99.6327L894.305 97.8074Z" fill="#FFFCF6"/>
</g>
<path d="M845.467 111.522C844.646 111.426 844.105 110.632 844.319 109.835V109.835C844.518 109.092 845.329 108.687 846.042 108.977L855.087 112.647L845.467 111.522Z" fill="#FCD043"/>
<path d="M856.481 102.95C856.59 102.194 857.342 101.691 858.085 101.877V101.877C858.779 102.051 859.151 102.789 858.88 103.452L855.071 112.75L856.481 102.95Z" fill="#FCD043"/>
<path d="M849.192 104.935C848.719 104.316 848.923 103.407 849.626 102.998V102.998C850.282 102.616 851.107 102.875 851.382 103.549L855.107 112.669L849.192 104.935Z" fill="#FCD043"/>
<path d="M862.984 106.758C863.619 106.276 864.517 106.435 864.896 107.097V107.097C865.251 107.715 864.96 108.521 864.277 108.813L855.121 112.73L862.984 106.758Z" fill="#FCD043"/>
<path d="M864.744 113.911C865.565 114.007 866.106 114.802 865.892 115.598V115.598C865.693 116.342 864.882 116.746 864.169 116.457L855.123 112.786L864.744 113.911Z" fill="#FCD043"/>
<path d="M853.73 122.484C853.621 123.24 852.869 123.743 852.126 123.557V123.557C851.432 123.383 851.06 122.645 851.331 121.982L855.14 112.684L853.73 122.484Z" fill="#FCD043"/>
<path d="M861.098 120.457C861.571 121.075 861.368 121.985 860.665 122.394V122.394C860.008 122.776 859.184 122.517 858.909 121.842L855.184 112.723L861.098 120.457Z" fill="#FCD043"/>
<path d="M847.307 118.63C846.673 119.111 845.775 118.952 845.395 118.29V118.29C845.041 117.672 845.332 116.867 846.015 116.575L855.171 112.657L847.307 118.63Z" fill="#FCD043"/>
<path d="M749 253C749 113.272 626.998 0 476.5 0C326.002 0 204 113.272 204 253" stroke="#3F5148"/>
<path d="M749.349 0.472076L748.982 728" stroke="#3F5148"/>
<path d="M1092 0L433.046 0.472076" stroke="#3F5148"/>
</g>
<defs>
<clipPath id="clip0_1_41">
<rect width="1228" height="728" fill="white"/>
</clipPath>
</defs>
</svg>
