<svg width="1063" height="728" viewBox="0 0 1063 728" fill="none" xmlns="http://www.w3.org/2000/svg">
<g clip-path="url(#clip0_1_41)">
<g opacity="0.64">
<path d="M746.314 137.621L744.094 136.733C743.082 136.314 742.762 135.549 743.107 134.612C743.477 133.65 744.266 133.304 745.278 133.724L746.832 134.34L747.646 132.244L748.312 132.515L746.314 137.621ZM746.61 134.908L745.278 134.365C744.513 134.044 744.044 134.266 743.798 134.858C743.551 135.45 743.773 135.919 744.538 136.24L745.87 136.782L746.61 134.908Z" fill="#FFFCF6"/>
<path d="M739.703 134.661L737.508 133.304C736.62 132.762 736.398 131.948 736.842 131.208C737.187 130.665 737.73 130.32 738.371 130.517C737.878 130.073 738.026 129.629 738.273 129.136C738.519 128.642 738.865 128.149 738.791 127.68L739.481 128.124C739.531 128.42 739.136 128.864 738.939 129.358C738.741 129.851 738.593 130.295 739.185 130.69L740.715 131.627L741.948 129.654L742.565 130.024L739.703 134.661ZM739.111 131.356C738.544 130.986 737.952 130.838 737.533 131.504C737.261 131.972 737.286 132.441 737.853 132.811L739.407 133.773L740.394 132.145L739.111 131.356Z" fill="#FFFCF6"/>
<path d="M733.462 130.443L730.65 127.926L731.07 127.458L733.339 129.48L734.498 128.173L732.377 126.298L732.796 125.83L734.918 127.754L736.176 126.348L733.882 124.3L734.301 123.832L737.138 126.372L733.462 130.443Z" fill="#FFFCF6"/>
<path d="M728.356 125.583L727.764 124.794L730.355 120.625L725.668 122.056L725.076 121.267L729.417 117.912L729.837 118.479L726.21 121.267L730.873 119.861L731.267 120.354L728.677 124.473L732.303 121.686L732.723 122.253L728.356 125.583Z" fill="#FFFCF6"/>
<path d="M723.324 118.283L722.979 117.641L727.814 115.027L728.159 115.668L723.324 118.283Z" fill="#FFFCF6"/>
<path d="M723.225 109.303C724.507 108.81 725.494 109.303 725.938 110.586C726.431 111.918 726.111 112.929 724.729 113.423L721.449 114.631L721.202 113.941L724.483 112.732C725.395 112.411 725.691 111.671 725.346 110.783C725.025 109.92 724.335 109.624 723.447 109.969L720.166 111.178L719.919 110.487L723.225 109.303Z" fill="#FFFCF6"/>
<path d="M719.007 107.058L718.859 106.071L723.151 103.654L718.341 102.643L718.193 101.656L723.62 100.817L723.719 101.508L719.229 102.199L723.99 103.21L724.064 103.827L719.821 106.195L724.311 105.504L724.409 106.195L719.007 107.058Z" fill="#FFFCF6"/>
<path d="M718.218 93.9845L718.588 91.4437C718.736 90.4077 719.378 89.865 720.241 89.9884C720.883 90.087 721.401 90.457 721.475 91.1231C721.697 90.5064 722.165 90.4324 722.708 90.4817C723.251 90.531 723.843 90.6297 724.237 90.383L724.114 91.1971C723.843 91.3697 723.3 91.1724 722.733 91.1971C722.19 91.1971 721.721 91.2711 721.623 91.9617L721.376 93.7378L723.695 94.0831L723.596 94.8232L718.218 93.9845ZM721.031 92.1098C721.129 91.4191 721.031 90.827 720.241 90.7284C719.723 90.6544 719.279 90.901 719.18 91.5424L718.909 93.3431L720.809 93.6145L721.031 92.1098Z" fill="#FFFCF6"/>
<path d="M720.216 84.2899C720.783 82.6372 722.362 82.2425 723.793 82.7358C725.199 83.2045 726.235 84.4872 725.667 86.1399C725.1 87.7927 723.521 88.1873 722.091 87.694C720.66 87.25 719.649 85.9426 720.216 84.2899ZM725.051 85.9673C725.47 84.7092 724.557 83.7965 723.521 83.4512C722.485 83.1058 721.203 83.2539 720.783 84.5119C720.364 85.7699 721.277 86.6826 722.313 87.028C723.349 87.3733 724.631 87.2253 725.051 85.9673Z" fill="#FFFCF6"/>
<path d="M723.62 76.8415C724.483 75.3368 726.136 75.2628 727.419 76.0029C728.701 76.7429 729.466 78.1982 728.578 79.7276C727.69 81.2569 726.062 81.3062 724.779 80.5662C723.496 79.7769 722.732 78.3215 723.62 76.8415ZM728.06 79.4069C728.726 78.2475 728.011 77.1869 727.073 76.6442C726.111 76.0769 724.853 76.0029 724.162 77.1375C723.496 78.2969 724.212 79.3576 725.149 79.9002C726.111 80.4676 727.369 80.5416 728.06 79.4069Z" fill="#FFFCF6"/>
<path d="M727 71.932L727.666 71.1673L732.229 72.968L729.985 68.6018L730.651 67.8372L734.721 71.5126L734.252 72.0306L730.848 68.9719L733.093 73.2887L732.673 73.7573L728.135 71.9813L731.539 75.04L731.07 75.5581L727 71.932Z" fill="#FFFCF6"/>
<path d="M736.818 64.8773C736.275 64.2852 735.658 64.3592 735.066 64.8033C734.598 65.1733 734.203 65.7159 734.647 66.3079C735.042 66.8506 735.831 66.4066 736.645 66.0366C737.459 65.6666 738.347 65.3706 738.988 66.2586C739.679 67.196 739.062 68.2567 738.273 68.8487C737.286 69.5887 736.102 69.7367 735.288 68.676L735.856 68.2567C736.398 68.9967 737.286 68.8487 737.928 68.3553C738.47 67.9607 738.914 67.3686 738.421 66.7273C737.977 66.1353 737.188 66.53 736.374 66.9C735.56 67.27 734.696 67.5906 734.104 66.8013C733.414 65.9133 733.932 64.9019 734.721 64.3099C735.609 63.6192 736.62 63.5452 737.36 64.4826L736.818 64.8773Z" fill="#FFFCF6"/>
<path d="M741.454 65.568L742.194 65.1731L742.589 65.9136L741.848 66.3086L741.454 65.568Z" fill="#FFFCF6"/>
<path d="M746.758 58.094L748.682 57.5513C749.151 57.428 749.768 57.2553 750.113 57.354C750.508 57.4526 750.902 57.7487 751.05 58.2913C751.223 58.8587 751.026 59.352 750.582 59.6974C751.272 59.648 751.766 60.0427 751.938 60.7087C752.16 61.4734 751.79 62.3861 750.754 62.6821L748.214 63.3975L746.758 58.094ZM748.756 62.5588L750.532 62.0654C751.149 61.8928 751.42 61.4241 751.272 60.8321C751.075 60.1414 750.458 60.1167 749.866 60.2647L748.263 60.7334L748.756 62.5588ZM748.09 60.1661L749.496 59.796C750.31 59.574 750.532 59.204 750.384 58.6613C750.187 57.9213 749.644 57.9707 749.028 58.1433L747.622 58.5133L748.09 60.1661Z" fill="#FFFCF6"/>
<path d="M755.589 56.2198L756.403 56.1458L759.042 61.3999L758.228 61.4739L757.488 59.8952L755.194 60.1172L754.725 61.8193L753.961 61.8933L755.589 56.2198ZM755.342 59.4759L757.192 59.3032L756.033 56.8612L755.342 59.4759Z" fill="#FFFCF6"/>
<path d="M761.336 55.9468L762.101 56.0208L764.593 60.6829L764.963 56.2675L765.653 56.3168L765.209 61.7929L764.42 61.7436L761.928 57.1308L761.558 61.4969L760.868 61.4476L761.336 55.9468Z" fill="#FFFCF6"/>
<path d="M769.131 56.9345L769.822 57.1318L769.107 59.7712L772.511 57.8471L773.399 58.0938L770.587 59.6232L772.042 63.3973L771.154 63.1506L769.97 59.9439L768.86 60.5112L768.342 62.3613L767.651 62.1639L769.131 56.9345Z" fill="#FFFCF6"/>
<path d="M779.886 60.9301L780.503 61.3001L779.27 63.3229L781.736 64.8029L782.97 62.7802L783.586 63.1502L780.725 67.837L780.108 67.4669L781.416 65.3209L778.949 63.8409L777.642 65.9869L777.025 65.6169L779.886 60.9301Z" fill="#FFFCF6"/>
<path d="M788.273 66.7516C789.555 67.9356 789.284 69.539 788.273 70.649C787.261 71.7591 785.707 72.1784 784.4 71.019C783.093 69.8597 783.389 68.2316 784.4 67.1216C785.411 66.0116 786.965 65.5922 788.273 66.7516ZM784.819 70.5504C785.806 71.4384 787.015 70.9697 787.73 70.1557C788.445 69.3417 788.84 68.1083 787.853 67.2203C786.867 66.3323 785.658 66.8009 784.943 67.615C784.227 68.429 783.833 69.6623 784.819 70.5504Z" fill="#FFFCF6"/>
<path d="M792.49 72.3512L791.38 70.8958L791.849 70.5258L794.538 74.0039L794.069 74.374L792.959 72.9186L789.111 75.8787L788.667 75.2867L792.49 72.3512Z" fill="#FFFCF6"/>
<path d="M796.044 76.3961L797.844 79.7261L797.302 80.0221L795.846 77.3334L794.317 78.1721L795.674 80.6635L795.131 80.9595L793.774 78.4681L792.121 79.3808L793.601 82.0942L793.059 82.3902L791.233 79.0354L796.044 76.3961Z" fill="#FFFCF6"/>
<path d="M799.077 82.5883L799.323 83.279L794.735 84.907L795.697 87.645L795.105 87.8424L793.897 84.4137L799.077 82.5883Z" fill="#FFFCF6"/>
</g>
<path d="M750.124 96.1396C749.361 96.0318 748.855 95.2754 749.046 94.5268V94.5268C749.224 93.8281 749.971 93.4528 750.64 93.7266L759.902 97.5211L750.124 96.1396Z" fill="#FCD043"/>
<path d="M761.099 87.8385C761.197 87.0279 761.985 86.4942 762.773 86.7043V86.7043C763.509 86.9005 763.908 87.7011 763.621 88.4058L759.928 97.4857L761.099 87.8385Z" fill="#FCD043"/>
<path d="M753.978 89.651C753.498 89.0191 753.664 88.1194 754.333 87.7353V87.7353C754.956 87.3767 755.765 87.6624 756.054 88.3436L759.941 97.4947L753.978 89.651Z" fill="#FCD043"/>
<path d="M767.691 91.5247C768.312 91.0501 769.22 91.2458 769.624 91.9416V91.9416C770.002 92.591 769.738 93.412 769.063 93.6902L759.938 97.4495L767.691 91.5247Z" fill="#FCD043"/>
<path d="M769.63 98.8558C770.393 98.9637 770.899 99.7201 770.708 100.469V100.469C770.53 101.167 769.783 101.543 769.114 101.269L759.852 97.4744L769.63 98.8558Z" fill="#FCD043"/>
<path d="M758.655 107.157C758.557 107.968 757.769 108.501 756.981 108.291V108.291C756.245 108.095 755.846 107.294 756.133 106.59L759.826 97.5097L758.655 107.157Z" fill="#FCD043"/>
<path d="M765.856 105.302C766.336 105.934 766.17 106.834 765.501 107.218V107.218C764.877 107.577 764.069 107.291 763.779 106.61L759.893 97.4586L765.856 105.302Z" fill="#FCD043"/>
<path d="M752.144 103.425C751.523 103.899 750.615 103.703 750.211 103.008V103.008C749.833 102.358 750.097 101.537 750.772 101.259L759.898 97.4997L752.144 103.425Z" fill="#FCD043"/>
<path d="M676 253C676 113.272 553.998 0 403.5 0C253.002 0 131 113.272 131 253" stroke="#3F5148"/>
<path d="M676.349 0.472076L675.982 728" stroke="#3F5148"/>
<path d="M1019 0L360.046 0.472076" stroke="#3F5148"/>
</g>
<defs>
<clipPath id="clip0_1_41">
<rect width="1063" height="728" fill="white"/>
</clipPath>
</defs>
</svg>
