<svg width="1918" height="280" viewBox="0 0 1918 280" fill="none" xmlns="http://www.w3.org/2000/svg">
<g clip-path="url(#clip0_1_11)">
<path d="M-149.159 67.12C-136.679 65.68 -125.039 60.88 -125.039 47.92C-125.039 31.12 -144.959 28 -160.439 28H-185.519V112H-155.279C-139.679 112 -119.759 106.36 -119.759 89.44C-119.759 74.8 -134.999 68.56 -149.159 67.12ZM-160.439 28.96C-140.759 28.96 -134.399 37.36 -134.399 47.92C-134.399 58.6 -140.759 66.88 -160.439 66.88H-176.159V28.96H-160.439ZM-155.279 111.16H-176.159V67.84H-155.279C-135.479 67.84 -129.239 78.88 -129.239 89.44C-129.239 100.12 -135.479 111.16 -155.279 111.16ZM-83.9153 54.28C-93.5153 54.28 -99.2753 59.32 -101.195 65.8L-100.355 66.16C-98.4353 59.8 -92.7953 55.48 -84.9953 55.48C-76.4753 55.48 -71.5553 63.52 -71.5553 72.64V83.8C-78.9953 68.44 -113.795 69.64 -113.795 94.12C-113.795 104.68 -103.715 112.6 -92.3153 112.6C-80.1953 112.6 -73.7153 103.96 -71.5553 95.2L-63.3953 112H-62.0753V74.2C-62.0753 59.44 -73.9553 54.28 -83.9153 54.28ZM-89.6753 110.32C-97.9553 110.32 -105.155 103 -105.155 93.04C-105.155 69.52 -76.2353 72.28 -71.5553 86.08V88.96C-72.0353 99.28 -78.5153 110.32 -89.6753 110.32ZM0.321878 75.28C-1.23812 61 -9.51812 54.28 -19.3581 54.28C-34.9581 54.28 -39.0381 70.48 -40.5981 84.04V55.12H-50.0781V112H-40.5981V94.24C-40.5981 84.16 -38.1981 58.96 -24.7581 56.44C-14.4381 54.4 -9.99812 64.6 -9.03812 73.6C-8.43812 79.72 -5.91812 108.04 -5.55812 112H4.04188C3.44188 107.56 1.52188 87.04 0.321878 75.28ZM38.8719 72.4L58.3119 55.12H56.9919L23.0319 85.24V28H13.6719V112H23.0319V86.32L32.7519 77.68L53.7519 112H63.4719L38.8719 72.4ZM149.97 75.28C148.41 61 140.13 54.28 130.29 54.28C114.69 54.28 110.61 70.48 109.05 84.04V28H99.5703V112H109.05V94.12C109.05 84.04 111.45 58.96 124.89 56.44C135.21 54.4 139.65 64.6 140.61 73.6C141.21 79.72 143.61 108.04 144.09 112H153.57C153.09 107.56 151.17 87.04 149.97 75.28ZM191.283 54.28C176.163 54.28 159.603 65.2 159.603 83.44C159.603 101.68 176.163 112.6 191.283 112.6C206.403 112.6 222.963 101.68 222.963 83.44C222.963 65.2 206.403 54.28 191.283 54.28ZM191.283 111.64C179.403 111.64 169.443 99.28 169.443 83.44C169.443 67.6 179.403 55.24 191.283 55.24C203.163 55.24 213.123 67.6 213.123 83.44C213.123 99.28 203.163 111.64 191.283 111.64ZM266.114 90.76C266.114 100.72 262.634 110.08 254.594 110.44C245.114 110.92 243.194 103.72 243.194 93.28V55.12H257.234V54.28H243.194V37.84H241.874L233.714 54.28H226.634V55.12H233.714V91.6C233.714 105.64 240.314 112.6 250.874 112.6C263.594 112.6 266.954 102.16 266.954 90.76H266.114ZM331.003 95.32C329.083 98.8 322.603 109.24 310.843 110.44C298.603 111.76 288.523 105.04 284.083 92.44C282.043 86.68 281.803 79.6 283.243 73.24H330.403C328.723 58.72 314.683 53.68 304.603 54.28C291.403 54.88 272.443 63.88 273.043 84.76C273.523 104.44 291.043 113.32 306.643 112.6C320.923 111.88 328.003 102.52 331.843 95.68L331.003 95.32ZM299.083 55.6C310.843 53.44 320.203 61.84 321.763 72.28H283.483C285.763 64.12 290.923 57.16 299.083 55.6ZM340.273 28V112H349.753V28H340.273ZM1191.58 67.12C1204.06 65.68 1215.7 60.88 1215.7 47.92C1215.7 31.12 1195.78 28 1180.3 28H1155.22V112H1185.46C1201.06 112 1220.98 106.36 1220.98 89.44C1220.98 74.8 1205.74 68.56 1191.58 67.12ZM1180.3 28.96C1199.98 28.96 1206.34 37.36 1206.34 47.92C1206.34 58.6 1199.98 66.88 1180.3 66.88H1164.58V28.96H1180.3ZM1185.46 111.16H1164.58V67.84H1185.46C1205.26 67.84 1211.5 78.88 1211.5 89.44C1211.5 100.12 1205.26 111.16 1185.46 111.16ZM1256.83 54.28C1247.23 54.28 1241.47 59.32 1239.55 65.8L1240.39 66.16C1242.31 59.8 1247.95 55.48 1255.75 55.48C1264.27 55.48 1269.19 63.52 1269.19 72.64V83.8C1261.75 68.44 1226.95 69.64 1226.95 94.12C1226.95 104.68 1237.03 112.6 1248.43 112.6C1260.55 112.6 1267.03 103.96 1269.19 95.2L1277.35 112H1278.67V74.2C1278.67 59.44 1266.79 54.28 1256.83 54.28ZM1251.07 110.32C1242.79 110.32 1235.59 103 1235.59 93.04C1235.59 69.52 1264.51 72.28 1269.19 86.08V88.96C1268.71 99.28 1262.23 110.32 1251.07 110.32ZM1341.06 75.28C1339.5 61 1331.22 54.28 1321.38 54.28C1305.78 54.28 1301.7 70.48 1300.14 84.04V55.12H1290.66V112H1300.14V94.24C1300.14 84.16 1302.54 58.96 1315.98 56.44C1326.3 54.4 1330.74 64.6 1331.7 73.6C1332.3 79.72 1334.82 108.04 1335.18 112H1344.78C1344.18 107.56 1342.26 87.04 1341.06 75.28ZM1379.61 72.4L1399.05 55.12H1397.73L1363.77 85.24V28H1354.41V112H1363.77V86.32L1373.49 77.68L1394.49 112H1404.21L1379.61 72.4ZM1490.71 75.28C1489.15 61 1480.87 54.28 1471.03 54.28C1455.43 54.28 1451.35 70.48 1449.79 84.04V28H1440.31V112H1449.79V94.12C1449.79 84.04 1452.19 58.96 1465.63 56.44C1475.95 54.4 1480.39 64.6 1481.35 73.6C1481.95 79.72 1484.35 108.04 1484.83 112H1494.31C1493.83 107.56 1491.91 87.04 1490.71 75.28ZM1532.03 54.28C1516.91 54.28 1500.35 65.2 1500.35 83.44C1500.35 101.68 1516.91 112.6 1532.03 112.6C1547.15 112.6 1563.71 101.68 1563.71 83.44C1563.71 65.2 1547.15 54.28 1532.03 54.28ZM1532.03 111.64C1520.15 111.64 1510.19 99.28 1510.19 83.44C1510.19 67.6 1520.15 55.24 1532.03 55.24C1543.91 55.24 1553.87 67.6 1553.87 83.44C1553.87 99.28 1543.91 111.64 1532.03 111.64ZM1606.86 90.76C1606.86 100.72 1603.38 110.08 1595.34 110.44C1585.86 110.92 1583.94 103.72 1583.94 93.28V55.12L1597.98 55.12V54.28L1583.94 54.28V37.84H1582.62L1574.46 54.28H1567.38V55.12H1574.46V91.6C1574.46 105.64 1581.06 112.6 1591.62 112.6C1604.34 112.6 1607.7 102.16 1607.7 90.76H1606.86ZM1671.75 95.32C1669.83 98.8 1663.35 109.24 1651.59 110.44C1639.35 111.76 1629.27 105.04 1624.83 92.44C1622.79 86.68 1622.55 79.6 1623.99 73.24H1671.15C1669.47 58.72 1655.43 53.68 1645.35 54.28C1632.15 54.88 1613.19 63.88 1613.79 84.76C1614.27 104.44 1631.79 113.32 1647.39 112.6C1661.67 111.88 1668.75 102.52 1672.59 95.68L1671.75 95.32ZM1639.83 55.6C1651.59 53.44 1660.95 61.84 1662.51 72.28H1624.23C1626.51 64.12 1631.67 57.16 1639.83 55.6ZM1681.02 28V112H1690.5V28H1681.02ZM1767.68 67.12C1780.16 65.68 1791.8 60.88 1791.8 47.92C1791.8 31.12 1771.88 28 1756.4 28H1731.32V112H1761.56C1777.16 112 1797.08 106.36 1797.08 89.44C1797.08 74.8 1781.84 68.56 1767.68 67.12ZM1756.4 28.96C1776.08 28.96 1782.44 37.36 1782.44 47.92C1782.44 58.6 1776.08 66.88 1756.4 66.88H1740.68V28.96H1756.4ZM1761.56 111.16H1740.68V67.84H1761.56C1781.36 67.84 1787.6 78.88 1787.6 89.44C1787.6 100.12 1781.36 111.16 1761.56 111.16ZM1832.92 54.28C1823.32 54.28 1817.56 59.32 1815.64 65.8L1816.48 66.16C1818.4 59.8 1824.04 55.48 1831.84 55.48C1840.36 55.48 1845.28 63.52 1845.28 72.64V83.8C1837.84 68.44 1803.04 69.64 1803.04 94.12C1803.04 104.68 1813.12 112.6 1824.52 112.6C1836.64 112.6 1843.12 103.96 1845.28 95.2L1853.44 112H1854.76V74.2C1854.76 59.44 1842.88 54.28 1832.92 54.28ZM1827.16 110.32C1818.88 110.32 1811.68 103 1811.68 93.04C1811.68 69.52 1840.6 72.28 1845.28 86.08V88.96C1844.8 99.28 1838.32 110.32 1827.16 110.32ZM1917.16 75.28C1915.6 61 1907.32 54.28 1897.48 54.28C1881.88 54.28 1877.8 70.48 1876.24 84.04V55.12H1866.76V112H1876.24V94.24C1876.24 84.16 1878.64 58.96 1892.08 56.44C1902.4 54.4 1906.84 64.6 1907.8 73.6C1908.4 79.72 1910.92 108.04 1911.28 112H1920.88C1920.28 107.56 1918.36 87.04 1917.16 75.28ZM1955.71 72.4L1975.15 55.12H1973.83L1939.87 85.24V28H1930.51V112H1939.87V86.32L1949.59 77.68L1970.59 112L1980.31 112L1955.71 72.4ZM2066.81 75.28C2065.25 61 2056.97 54.28 2047.13 54.28C2031.53 54.28 2027.45 70.48 2025.89 84.04V28H2016.41V112H2025.89V94.12C2025.89 84.04 2028.29 58.96 2041.73 56.44C2052.05 54.4 2056.49 64.6 2057.45 73.6C2058.05 79.72 2060.45 108.04 2060.93 112H2070.41C2069.93 107.56 2068.01 87.04 2066.81 75.28ZM2108.12 54.28C2093 54.28 2076.44 65.2 2076.44 83.44C2076.44 101.68 2093 112.6 2108.12 112.6C2123.24 112.6 2139.8 101.68 2139.8 83.44C2139.8 65.2 2123.24 54.28 2108.12 54.28ZM2108.12 111.64C2096.24 111.64 2086.28 99.28 2086.28 83.44C2086.28 67.6 2096.24 55.24 2108.12 55.24C2120 55.24 2129.96 67.6 2129.96 83.44C2129.96 99.28 2120 111.64 2108.12 111.64ZM2182.95 90.76C2182.95 100.72 2179.47 110.08 2171.43 110.44C2161.95 110.92 2160.03 103.72 2160.03 93.28V55.12H2174.07V54.28H2160.03V37.84H2158.71L2150.55 54.28H2143.47V55.12H2150.55V91.6C2150.55 105.64 2157.15 112.6 2167.71 112.6C2180.43 112.6 2183.79 102.16 2183.79 90.76H2182.95ZM2247.84 95.32C2245.92 98.8 2239.44 109.24 2227.68 110.44C2215.44 111.76 2205.36 105.04 2200.92 92.44C2198.88 86.68 2198.64 79.6 2200.08 73.24H2247.24C2245.56 58.72 2231.52 53.68 2221.44 54.28C2208.24 54.88 2189.28 63.88 2189.88 84.76C2190.36 104.44 2207.88 113.32 2223.48 112.6C2237.76 111.88 2244.84 102.52 2248.68 95.68L2247.84 95.32ZM2215.92 55.6C2227.68 53.44 2237.04 61.84 2238.6 72.28H2200.32C2202.6 64.12 2207.76 57.16 2215.92 55.6ZM2257.11 28V112H2266.59V28H2257.11ZM-287.44 207.12C-274.96 205.68 -263.32 200.88 -263.32 187.92C-263.32 171.12 -283.24 168 -298.72 168H-323.8V252H-293.56C-277.96 252 -258.04 246.36 -258.04 229.44C-258.04 214.8 -273.28 208.56 -287.44 207.12ZM-298.72 168.96C-279.04 168.96 -272.68 177.36 -272.68 187.92C-272.68 198.6 -279.04 206.88 -298.72 206.88H-314.44V168.96H-298.72ZM-293.56 251.16H-314.44V207.84H-293.56C-273.76 207.84 -267.52 218.88 -267.52 229.44C-267.52 240.12 -273.76 251.16 -293.56 251.16ZM-222.197 194.28C-231.797 194.28 -237.557 199.32 -239.477 205.8L-238.637 206.16C-236.717 199.8 -231.077 195.48 -223.277 195.48C-214.757 195.48 -209.837 203.52 -209.837 212.64V223.8C-217.277 208.44 -252.077 209.64 -252.077 234.12C-252.077 244.68 -241.997 252.6 -230.597 252.6C-218.477 252.6 -211.997 243.96 -209.837 235.2L-201.677 252H-200.357V214.2C-200.357 199.44 -212.237 194.28 -222.197 194.28ZM-227.957 250.32C-236.237 250.32 -243.437 243 -243.437 233.04C-243.437 209.52 -214.517 212.28 -209.837 226.08V228.96C-210.317 239.28 -216.797 250.32 -227.957 250.32ZM-137.959 215.28C-139.519 201 -147.799 194.28 -157.639 194.28C-173.239 194.28 -177.319 210.48 -178.879 224.04V195.12H-188.359V252H-178.879V234.24C-178.879 224.16 -176.479 198.96 -163.039 196.44C-152.719 194.4 -148.279 204.6 -147.319 213.6C-146.719 219.72 -144.199 248.04 -143.839 252H-134.239C-134.839 247.56 -136.759 227.04 -137.959 215.28ZM-99.4094 212.4L-79.9694 195.12H-81.2894L-115.249 225.24V168H-124.609V252H-115.249V226.32L-105.529 217.68L-84.5294 252H-74.8094L-99.4094 212.4ZM11.6891 215.28C10.1291 201 1.84906 194.28 -7.99093 194.28C-23.5909 194.28 -27.6709 210.48 -29.2309 224.04V168H-38.7109V252H-29.2309V234.12C-29.2309 224.04 -26.8309 198.96 -13.3909 196.44C-3.07094 194.4 1.36906 204.6 2.32906 213.6C2.92906 219.72 5.32907 248.04 5.80907 252H15.2891C14.8091 247.56 12.8891 227.04 11.6891 215.28ZM53.0019 194.28C37.8819 194.28 21.3219 205.2 21.3219 223.44C21.3219 241.68 37.8819 252.6 53.0019 252.6C68.1219 252.6 84.6819 241.68 84.6819 223.44C84.6819 205.2 68.1219 194.28 53.0019 194.28ZM53.0019 251.64C41.1219 251.64 31.1619 239.28 31.1619 223.44C31.1619 207.6 41.1219 195.24 53.0019 195.24C64.8819 195.24 74.8419 207.6 74.8419 223.44C74.8419 239.28 64.8819 251.64 53.0019 251.64ZM127.833 230.76C127.833 240.72 124.353 250.08 116.313 250.44C106.833 250.92 104.913 243.72 104.913 233.28V195.12H118.953V194.28H104.913V177.84H103.593L95.4331 194.28H88.3531V195.12H95.4331V231.6C95.4331 245.64 102.033 252.6 112.593 252.6C125.313 252.6 128.673 242.16 128.673 230.76H127.833ZM192.722 235.32C190.802 238.8 184.322 249.24 172.562 250.44C160.322 251.76 150.242 245.04 145.802 232.44C143.762 226.68 143.522 219.6 144.962 213.24L192.122 213.24C190.442 198.72 176.402 193.68 166.322 194.28C153.122 194.88 134.162 203.88 134.762 224.76C135.242 244.44 152.762 253.32 168.362 252.6C182.642 251.88 189.722 242.52 193.562 235.68L192.722 235.32ZM160.802 195.6C172.562 193.44 181.922 201.84 183.482 212.28L145.202 212.28C147.482 204.12 152.642 197.16 160.802 195.6ZM201.992 168V252H211.472V168H201.992ZM316.31 207.12C328.79 205.68 340.43 200.88 340.43 187.92C340.43 171.12 320.51 168 305.03 168H279.95V252H310.19C325.79 252 345.71 246.36 345.71 229.44C345.71 214.8 330.47 208.56 316.31 207.12ZM305.03 168.96C324.71 168.96 331.07 177.36 331.07 187.92C331.07 198.6 324.71 206.88 305.03 206.88H289.31V168.96H305.03ZM310.19 251.16H289.31V207.84H310.19C329.99 207.84 336.23 218.88 336.23 229.44C336.23 240.12 329.99 251.16 310.19 251.16ZM381.553 194.28C371.953 194.28 366.193 199.32 364.273 205.8L365.113 206.16C367.033 199.8 372.673 195.48 380.473 195.48C388.993 195.48 393.913 203.52 393.913 212.64V223.8C386.473 208.44 351.673 209.64 351.673 234.12C351.673 244.68 361.753 252.6 373.153 252.6C385.273 252.6 391.753 243.96 393.913 235.2L402.073 252H403.393V214.2C403.393 199.44 391.513 194.28 381.553 194.28ZM375.793 250.32C367.513 250.32 360.313 243 360.313 233.04C360.313 209.52 389.233 212.28 393.913 226.08V228.96C393.433 239.28 386.953 250.32 375.793 250.32ZM465.791 215.28C464.231 201 455.951 194.28 446.111 194.28C430.511 194.28 426.431 210.48 424.871 224.04V195.12H415.391V252H424.871V234.24C424.871 224.16 427.271 198.96 440.711 196.44C451.031 194.4 455.471 204.6 456.431 213.6C457.031 219.72 459.551 248.04 459.911 252H469.511C468.911 247.56 466.991 227.04 465.791 215.28ZM504.341 212.4L523.781 195.12H522.461L488.501 225.24V168H479.141V252H488.501V226.32L498.221 217.68L519.221 252H528.941L504.341 212.4ZM615.439 215.28C613.879 201 605.599 194.28 595.759 194.28C580.159 194.28 576.079 210.48 574.519 224.04V168H565.039V252H574.519V234.12C574.519 224.04 576.919 198.96 590.359 196.44C600.679 194.4 605.119 204.6 606.079 213.6C606.679 219.72 609.079 248.04 609.559 252H619.039C618.559 247.56 616.639 227.04 615.439 215.28ZM656.752 194.28C641.632 194.28 625.072 205.2 625.072 223.44C625.072 241.68 641.632 252.6 656.752 252.6C671.872 252.6 688.432 241.68 688.432 223.44C688.432 205.2 671.872 194.28 656.752 194.28ZM656.752 251.64C644.872 251.64 634.912 239.28 634.912 223.44C634.912 207.6 644.872 195.24 656.752 195.24C668.632 195.24 678.592 207.6 678.592 223.44C678.592 239.28 668.632 251.64 656.752 251.64ZM731.583 230.76C731.583 240.72 728.103 250.08 720.063 250.44C710.583 250.92 708.663 243.72 708.663 233.28V195.12H722.703V194.28H708.663V177.84H707.343L699.183 194.28H692.103V195.12H699.183V231.6C699.183 245.64 705.783 252.6 716.343 252.6C729.063 252.6 732.423 242.16 732.423 230.76H731.583ZM796.472 235.32C794.552 238.8 788.072 249.24 776.312 250.44C764.072 251.76 753.992 245.04 749.552 232.44C747.512 226.68 747.272 219.6 748.712 213.24H795.872C794.192 198.72 780.152 193.68 770.072 194.28C756.872 194.88 737.912 203.88 738.512 224.76C738.992 244.44 756.512 253.32 772.112 252.6C786.392 251.88 793.472 242.52 797.312 235.68L796.472 235.32ZM764.552 195.6C776.312 193.44 785.672 201.84 787.232 212.28H748.952C751.232 204.12 756.392 197.16 764.552 195.6ZM805.742 168V252H815.222V168H805.742ZM892.404 207.12C904.884 205.68 916.524 200.88 916.524 187.92C916.524 171.12 896.604 168 881.124 168H856.044V252H886.284C901.884 252 921.804 246.36 921.804 229.44C921.804 214.8 906.564 208.56 892.404 207.12ZM881.124 168.96C900.804 168.96 907.164 177.36 907.164 187.92C907.164 198.6 900.804 206.88 881.124 206.88H865.404V168.96H881.124ZM886.284 251.16H865.404V207.84H886.284C906.084 207.84 912.324 218.88 912.324 229.44C912.324 240.12 906.084 251.16 886.284 251.16ZM957.647 194.28C948.047 194.28 942.287 199.32 940.367 205.8L941.207 206.16C943.127 199.8 948.767 195.48 956.567 195.48C965.087 195.48 970.007 203.52 970.007 212.64V223.8C962.567 208.44 927.767 209.64 927.767 234.12C927.767 244.68 937.847 252.6 949.247 252.6C961.367 252.6 967.847 243.96 970.007 235.2L978.167 252H979.487V214.2C979.487 199.44 967.607 194.28 957.647 194.28ZM951.887 250.32C943.607 250.32 936.407 243 936.407 233.04C936.407 209.52 965.327 212.28 970.007 226.08V228.96C969.527 239.28 963.047 250.32 951.887 250.32ZM1041.88 215.28C1040.32 201 1032.04 194.28 1022.2 194.28C1006.6 194.28 1002.52 210.48 1000.96 224.04V195.12H991.484V252H1000.96V234.24C1000.96 224.16 1003.36 198.96 1016.8 196.44C1027.12 194.4 1031.56 204.6 1032.52 213.6C1033.12 219.72 1035.64 248.04 1036 252H1045.6C1045 247.56 1043.08 227.04 1041.88 215.28ZM1080.43 212.4L1099.87 195.12H1098.55L1064.59 225.24V168H1055.23V252H1064.59V226.32L1074.31 217.68L1095.31 252H1105.03L1080.43 212.4ZM1219.19 215.28C1217.63 201 1209.35 194.28 1199.51 194.28C1183.91 194.28 1179.83 210.48 1178.27 224.04V168H1168.79V252H1178.27V234.12C1178.27 224.04 1180.67 198.96 1194.11 196.44C1204.43 194.4 1208.87 204.6 1209.83 213.6C1210.43 219.72 1212.83 248.04 1213.31 252H1222.79C1222.31 247.56 1220.39 227.04 1219.19 215.28ZM1260.5 194.28C1245.38 194.28 1228.82 205.2 1228.82 223.44C1228.82 241.68 1245.38 252.6 1260.5 252.6C1275.62 252.6 1292.18 241.68 1292.18 223.44C1292.18 205.2 1275.62 194.28 1260.5 194.28ZM1260.5 251.64C1248.62 251.64 1238.66 239.28 1238.66 223.44C1238.66 207.6 1248.62 195.24 1260.5 195.24C1272.38 195.24 1282.34 207.6 1282.34 223.44C1282.34 239.28 1272.38 251.64 1260.5 251.64ZM1335.33 230.76C1335.33 240.72 1331.85 250.08 1323.81 250.44C1314.33 250.92 1312.41 243.72 1312.41 233.28V195.12H1326.45V194.28H1312.41V177.84H1311.09L1302.93 194.28H1295.85V195.12H1302.93V231.6C1302.93 245.64 1309.53 252.6 1320.09 252.6C1332.81 252.6 1336.17 242.16 1336.17 230.76H1335.33ZM1400.22 235.32C1398.3 238.8 1391.82 249.24 1380.06 250.44C1367.82 251.76 1357.74 245.04 1353.3 232.44C1351.26 226.68 1351.02 219.6 1352.46 213.24H1399.62C1397.94 198.72 1383.9 193.68 1373.82 194.28C1360.62 194.88 1341.66 203.88 1342.26 224.76C1342.74 244.44 1360.26 253.32 1375.86 252.6C1390.14 251.88 1397.22 242.52 1401.06 235.68L1400.22 235.32ZM1368.3 195.6C1380.06 193.44 1389.42 201.84 1390.98 212.28H1352.7C1354.98 204.12 1360.14 197.16 1368.3 195.6ZM1409.49 168V252H1418.97V168H1409.49ZM1496.15 207.12C1508.63 205.68 1520.27 200.88 1520.27 187.92C1520.27 171.12 1500.35 168 1484.87 168H1459.79V252H1490.03C1505.63 252 1525.55 246.36 1525.55 229.44C1525.55 214.8 1510.31 208.56 1496.15 207.12ZM1484.87 168.96C1504.55 168.96 1510.91 177.36 1510.91 187.92C1510.91 198.6 1504.55 206.88 1484.87 206.88H1469.15V168.96H1484.87ZM1490.03 251.16H1469.15V207.84H1490.03C1509.83 207.84 1516.07 218.88 1516.07 229.44C1516.07 240.12 1509.83 251.16 1490.03 251.16ZM1561.4 194.28C1551.8 194.28 1546.04 199.32 1544.12 205.8L1544.96 206.16C1546.88 199.8 1552.52 195.48 1560.32 195.48C1568.84 195.48 1573.76 203.52 1573.76 212.64V223.8C1566.32 208.44 1531.52 209.64 1531.52 234.12C1531.52 244.68 1541.6 252.6 1553 252.6C1565.12 252.6 1571.6 243.96 1573.76 235.2L1581.92 252H1583.24V214.2C1583.24 199.44 1571.36 194.28 1561.4 194.28ZM1555.64 250.32C1547.36 250.32 1540.16 243 1540.16 233.04C1540.16 209.52 1569.08 212.28 1573.76 226.08V228.96C1573.28 239.28 1566.8 250.32 1555.64 250.32ZM1645.63 215.28C1644.07 201 1635.79 194.28 1625.95 194.28C1610.35 194.28 1606.27 210.48 1604.71 224.04V195.12H1595.23V252H1604.71V234.24C1604.71 224.16 1607.11 198.96 1620.55 196.44C1630.87 194.4 1635.31 204.6 1636.27 213.6C1636.87 219.72 1639.39 248.04 1639.75 252H1649.35C1648.75 247.56 1646.83 227.04 1645.63 215.28ZM1684.18 212.4L1703.62 195.12H1702.3L1668.34 225.24V168H1658.98V252H1668.34V226.32L1678.06 217.68L1699.06 252H1708.78L1684.18 212.4ZM1795.28 215.28C1793.72 201 1785.44 194.28 1775.6 194.28C1760 194.28 1755.92 210.48 1754.36 224.04V168H1744.88V252H1754.36V234.12C1754.36 224.04 1756.76 198.96 1770.2 196.44C1780.52 194.4 1784.96 204.6 1785.92 213.6C1786.52 219.72 1788.92 248.04 1789.4 252H1798.88C1798.4 247.56 1796.48 227.04 1795.28 215.28ZM1836.6 194.28C1821.48 194.28 1804.92 205.2 1804.92 223.44C1804.92 241.68 1821.48 252.6 1836.6 252.6C1851.72 252.6 1868.28 241.68 1868.28 223.44C1868.28 205.2 1851.72 194.28 1836.6 194.28ZM1836.6 251.64C1824.72 251.64 1814.76 239.28 1814.76 223.44C1814.76 207.6 1824.72 195.24 1836.6 195.24C1848.48 195.24 1858.44 207.6 1858.44 223.44C1858.44 239.28 1848.48 251.64 1836.6 251.64ZM1911.43 230.76C1911.43 240.72 1907.95 250.08 1899.91 250.44C1890.43 250.92 1888.51 243.72 1888.51 233.28V195.12H1902.55V194.28H1888.51V177.84H1887.19L1879.03 194.28H1871.95V195.12H1879.03V231.6C1879.03 245.64 1885.63 252.6 1896.19 252.6C1908.91 252.6 1912.27 242.16 1912.27 230.76H1911.43ZM1976.32 235.32C1974.4 238.8 1967.92 249.24 1956.16 250.44C1943.92 251.76 1933.84 245.04 1929.4 232.44C1927.36 226.68 1927.12 219.6 1928.56 213.24H1975.72C1974.04 198.72 1960 193.68 1949.92 194.28C1936.72 194.88 1917.76 203.88 1918.36 224.76C1918.84 244.44 1936.36 253.32 1951.96 252.6C1966.24 251.88 1973.32 242.52 1977.16 235.68L1976.32 235.32ZM1944.4 195.6C1956.16 193.44 1965.52 201.84 1967.08 212.28H1928.8C1931.08 204.12 1936.24 197.16 1944.4 195.6ZM1985.59 168V252H1995.07V168H1985.59Z" fill="#FFFCF6" fill-opacity="0.12"/>
<path d="M426.935 67.12C439.415 65.68 451.055 60.88 451.055 47.92C451.055 31.12 431.135 28 415.655 28H390.575V112H420.815C436.415 112 456.335 106.36 456.335 89.44C456.335 74.8 441.095 68.56 426.935 67.12ZM415.655 28.96C435.335 28.96 441.695 37.36 441.695 47.92C441.695 58.6 435.335 66.88 415.655 66.88H399.935V28.96H415.655ZM420.815 111.16H399.935V67.84H420.815C440.615 67.84 446.855 78.88 446.855 89.44C446.855 100.12 440.615 111.16 420.815 111.16ZM492.178 54.28C482.578 54.28 476.818 59.32 474.898 65.8L475.738 66.16C477.658 59.8 483.298 55.48 491.098 55.48C499.618 55.48 504.538 63.52 504.538 72.64V83.8C497.098 68.44 462.298 69.64 462.298 94.12C462.298 104.68 472.378 112.6 483.778 112.6C495.898 112.6 502.378 103.96 504.538 95.2L512.698 112H514.018V74.2C514.018 59.44 502.138 54.28 492.178 54.28ZM486.418 110.32C478.138 110.32 470.938 103 470.938 93.04C470.938 69.52 499.858 72.28 504.538 86.08V88.96C504.058 99.28 497.578 110.32 486.418 110.32ZM576.416 75.28C574.856 61 566.576 54.28 556.736 54.28C541.136 54.28 537.056 70.48 535.496 84.04V55.12H526.016V112H535.496V94.24C535.496 84.16 537.896 58.96 551.336 56.44C561.656 54.4 566.096 64.6 567.056 73.6C567.656 79.72 570.176 108.04 570.536 112H580.136C579.536 107.56 577.616 87.04 576.416 75.28ZM614.966 72.4L634.406 55.12H633.086L599.126 85.24V28H589.766V112H599.126V86.32L608.846 77.68L629.846 112H639.566L614.966 72.4ZM649.208 114.28V115.24H695.408V114.28H649.208ZM709.794 114.28V115.24H755.994V114.28H709.794ZM819.58 75.28C818.02 61 809.74 54.28 799.9 54.28C784.3 54.28 780.22 70.48 778.66 84.04V28H769.18V112H778.66V94.12C778.66 84.04 781.06 58.96 794.5 56.44C804.82 54.4 809.26 64.6 810.22 73.6C810.82 79.72 813.22 108.04 813.7 112H823.18C822.7 107.56 820.78 87.04 819.58 75.28ZM860.893 54.28C845.773 54.28 829.213 65.2 829.213 83.44C829.213 101.68 845.773 112.6 860.893 112.6C876.013 112.6 892.573 101.68 892.573 83.44C892.573 65.2 876.013 54.28 860.893 54.28ZM860.893 111.64C849.013 111.64 839.053 99.28 839.053 83.44C839.053 67.6 849.013 55.24 860.893 55.24C872.773 55.24 882.733 67.6 882.733 83.44C882.733 99.28 872.773 111.64 860.893 111.64ZM935.724 90.76C935.724 100.72 932.244 110.08 924.204 110.44C914.724 110.92 912.804 103.72 912.804 93.28V55.12H926.844V54.28H912.804V37.84H911.484L903.324 54.28H896.244V55.12H903.324V91.6C903.324 105.64 909.924 112.6 920.484 112.6C933.204 112.6 936.564 102.16 936.564 90.76H935.724ZM1000.61 95.32C998.693 98.8 992.213 109.24 980.453 110.44C968.213 111.76 958.133 105.04 953.693 92.44C951.653 86.68 951.413 79.6 952.853 73.24H1000.01C998.333 58.72 984.293 53.68 974.213 54.28C961.013 54.88 942.053 63.88 942.653 84.76C943.133 104.44 960.653 113.32 976.253 112.6C990.533 111.88 997.613 102.52 1001.45 95.68L1000.61 95.32ZM968.693 55.6C980.453 53.44 989.813 61.84 991.373 72.28H953.093C955.373 64.12 960.533 57.16 968.693 55.6ZM1009.88 28V112H1019.36V28L1009.88 28ZM1080.77 97.12C1069.97 98.8 1061.09 93.16 1057.85 82.36C1054.49 71.56 1058.33 59.2 1068.77 56.92C1076.81 55.24 1085.93 59.68 1090.49 67.6V60.28C1088.81 58.84 1081.73 55.48 1075.01 55.48C1062.89 55.48 1051.97 65.32 1051.97 77.44C1051.97 89.44 1062.41 99.28 1074.53 99.28C1085.33 99.28 1091.21 93.64 1094.57 86.8L1094.09 86.56C1090.97 92.8 1086.17 96.4 1080.77 97.12ZM1072.85 37.72C1050.53 37.72 1032.53 55.72 1032.53 78.04C1032.53 100.24 1050.53 118.36 1072.85 118.36C1095.05 118.36 1113.17 100.24 1113.17 78.04C1113.17 55.72 1095.05 37.72 1072.85 37.72ZM1072.85 117.28C1051.13 117.28 1033.49 99.64 1033.49 78.04C1033.49 56.32 1051.13 38.68 1072.85 38.68C1094.57 38.68 1112.21 56.32 1112.21 78.04C1112.21 99.64 1094.57 117.28 1072.85 117.28Z" fill="#FFFCF6"/>
<rect x="384" y="27" width="645" height="104" fill="#313F38"/>
</g>
<defs>
<clipPath id="clip0_1_11">
<rect width="1918" height="280" fill="white"/>
</clipPath>
</defs>
</svg>
