<svg width="249" height="70" viewBox="0 0 249 70" fill="none" xmlns="http://www.w3.org/2000/svg">
<g clip-path="url(#clip0_1_10)">
<path opacity="0.32" d="M35 0.5H124.5H214C233.054 0.5 248.5 15.9462 248.5 35C248.5 54.0538 233.054 69.5 214 69.5H35C15.9462 69.5 0.5 54.0538 0.5 35C0.5 15.9462 15.9462 0.5 35 0.5Z" stroke="#FFFCF6"/>
<path d="M46.5 18L47.8519 31.3391L56.7862 21.3422L50.0394 32.9284L63.1435 30.0922L50.875 35.5L63.1435 40.9078L50.0394 38.0716L56.7862 49.6578L47.8519 39.6609L46.5 53L45.148 39.6609L36.2138 49.6578L42.9605 38.0716L29.8565 40.9078L42.125 35.5L29.8565 30.0922L42.9605 32.9284L36.2138 21.3422L45.148 31.3391L46.5 18Z" fill="#FCD043"/>
<path d="M104.782 29.89C104.65 26.436 102.208 24.918 98.996 24.918C96.136 24.918 93.298 26.326 93.298 29.516C93.298 32.398 95.828 33.124 98.336 33.674C100.844 34.224 103.352 34.598 103.352 36.754C103.352 39.02 101.262 39.614 99.37 39.614C96.994 39.614 94.794 38.47 94.794 35.83H92.814C92.814 39.658 95.784 41.374 99.304 41.374C102.164 41.374 105.442 40.032 105.442 36.688C105.442 33.608 102.934 32.728 100.426 32.156C97.896 31.584 95.388 31.298 95.388 29.362C95.388 27.316 97.148 26.678 98.908 26.678C101.064 26.678 102.56 27.646 102.802 29.89H104.782ZM107.784 41H109.654V29.626H107.784V41ZM109.654 25.292H107.784V27.58H109.654V25.292ZM112.551 41H114.421V34.576C114.421 32.53 115.521 31.012 117.787 31.012C119.217 31.012 120.097 31.914 120.097 33.3V41H121.967V33.52C121.967 31.078 121.043 29.362 118.051 29.362C116.423 29.362 115.147 30.022 114.355 31.43H114.311V29.626H112.551V41ZM134.433 33.278C134.169 30.572 132.101 29.362 129.527 29.362C125.919 29.362 124.159 32.046 124.159 35.456C124.159 38.844 126.007 41.264 129.483 41.264C132.343 41.264 134.081 39.614 134.499 36.842H132.585C132.343 38.558 131.265 39.614 129.461 39.614C127.085 39.614 126.139 37.546 126.139 35.456C126.139 33.146 126.975 31.012 129.681 31.012C131.221 31.012 132.211 31.848 132.497 33.278H134.433ZM144.446 37.392C144.116 38.866 143.038 39.614 141.498 39.614C139.012 39.614 137.89 37.854 137.956 35.874H146.47C146.58 33.124 145.348 29.362 141.322 29.362C138.22 29.362 135.976 31.87 135.976 35.28C136.086 38.756 137.802 41.264 141.432 41.264C143.984 41.264 145.788 39.9 146.294 37.392H144.446ZM137.956 34.224C138.088 32.486 139.254 31.012 141.212 31.012C143.06 31.012 144.402 32.442 144.49 34.224H137.956ZM160.955 25.402H159.525C159.107 27.756 157.171 28.328 155.037 28.328V29.824H159.085V41H160.955V25.402ZM174.346 30.616C174.346 32.464 173.114 34.048 171.156 34.048C169.352 34.048 168.076 32.464 168.076 30.748C168.076 28.834 168.912 27.052 171.134 27.052C173.224 27.052 174.346 28.702 174.346 30.616ZM166.426 37.238C166.668 39.922 168.538 41.264 171.156 41.264C174.94 41.264 176.568 38.25 176.568 32.86C176.568 26.964 174.126 25.402 171.222 25.402C168.208 25.402 166.096 27.47 166.096 30.484C166.096 33.564 167.856 35.698 171.024 35.698C172.542 35.698 173.928 34.862 174.632 33.542L174.676 33.586C174.566 37.612 173.444 39.614 171.156 39.614C169.66 39.614 168.428 38.756 168.296 37.238H166.426ZM188.77 25.666H178.672V27.426H186.856C183.578 30.902 181.048 35.72 180.696 41H182.786C183.072 36.116 185.624 30.396 188.77 27.272V25.666ZM194.593 33.674C194.945 33.63 195.341 33.608 195.715 33.608C197.563 33.608 199.037 34.642 199.037 36.6C199.037 38.492 197.475 39.614 195.649 39.614C193.515 39.614 192.393 38.206 192.327 36.182H190.457C190.391 39.394 192.481 41.264 195.649 41.264C198.575 41.264 201.017 39.636 201.017 36.512C201.017 34.642 200.093 33.146 198.201 32.728V32.684C199.389 32.134 200.357 30.946 200.357 29.582C200.357 26.7 198.311 25.402 195.605 25.402C192.481 25.402 190.897 27.47 190.787 30.44H192.657C192.679 28.614 193.559 27.052 195.605 27.052C197.189 27.052 198.377 27.932 198.377 29.56C198.377 31.254 196.991 32.112 195.407 32.112C195.143 32.112 194.879 32.112 194.593 32.09V33.674Z" fill="#FFFCF6"/>
</g>
<defs>
<clipPath id="clip0_1_10">
<rect width="249" height="70" fill="white"/>
</clipPath>
</defs>
</svg>
